<svg width="1072" height="1072" viewBox="0 0 1072 1072" fill="none" xmlns="http://www.w3.org/2000/svg">
<path d="M536 38.7539C261.34 38.7539 38.4724 261.621 38.4724 536.281C38.4724 546.745 30.1018 555.115 19.6385 555.115C8.65209 555.115 0.281494 546.745 0.281494 536.281C0.281494 240.171 239.89 0.562988 536 0.562988C731.663 0.562988 901.691 105.719 995.337 262.144V58.1109C995.337 47.1245 1003.71 38.7539 1014.17 38.7539C1024.63 38.7539 1033.53 47.1245 1033.53 58.1109V325.97C1033.53 336.433 1024.63 344.804 1014.17 344.804H746.311C735.848 344.804 727.478 336.433 727.478 325.97C727.478 314.984 735.848 306.613 746.311 306.613H977.026C893.843 147.572 728.001 38.7539 536 38.7539ZM536 1072C340.337 1072 170.309 966.844 76.6632 810.419V1014.45C76.6632 1024.92 68.2926 1033.81 57.8294 1033.81C47.3661 1033.81 38.4724 1024.92 38.4724 1014.45V746.593C38.4724 736.13 47.3661 727.759 57.8294 727.759H325.689C336.152 727.759 344.522 736.13 344.522 746.593C344.522 757.056 336.152 765.95 325.689 765.95H94.9739C178.157 924.991 343.999 1033.81 536 1033.81C810.66 1033.81 1033.53 810.942 1033.53 536.281C1033.53 525.818 1041.9 516.924 1052.36 516.924C1063.35 516.924 1071.72 525.818 1071.72 536.281C1071.72 831.868 832.11 1072 536 1072Z" fill="#2A2A2A"/>
</svg>
