<svg width="280" height="281" viewBox="0 0 280 281" fill="none" xmlns="http://www.w3.org/2000/svg">
<path d="M277.137 147.289C277.92 147.289 278.677 147.322 279.482 147.357C279.623 147.363 279.766 147.367 279.909 147.373C276.211 219.047 218.899 276.359 147.225 280.058C147.219 279.914 147.214 279.771 147.208 279.63C147.173 278.825 147.141 278.069 147.141 277.285C147.141 205.445 205.297 147.289 277.137 147.289Z" fill="#2A2A2A"/>
<path d="M146.986 0.239349C218.799 3.75729 276.39 61.3491 279.908 133.162C279.87 133.159 279.83 133.157 279.79 133.153C278.985 133.085 278.068 133.008 277.137 133.008C197.53 133.008 132.86 197.678 132.86 277.285C132.86 278.217 132.937 279.133 133.005 279.939C133.008 279.978 133.011 280.018 133.014 280.057C61.2007 276.539 3.60878 218.947 0.0910645 147.134C0.13026 147.137 0.170441 147.14 0.210205 147.144C1.01588 147.212 1.93229 147.289 2.86353 147.289C82.4706 147.289 147.141 82.6189 147.141 3.01181C147.141 2.08041 147.064 1.16427 146.995 0.35849C146.992 0.318576 146.989 0.278689 146.986 0.239349Z" fill="#2A2A2A"/>
<path d="M132.792 0.667084C132.827 1.47181 132.86 2.22846 132.86 3.01181C132.859 74.8521 74.7037 133.007 2.86353 133.008C2.08032 133.008 1.32335 132.975 0.518799 132.941C0.377499 132.934 0.233451 132.929 0.0891113 132.923C3.78765 61.2496 61.1013 3.93691 132.775 0.238373C132.781 0.382705 132.786 0.525791 132.792 0.667084Z" fill="#2A2A2A"/>
</svg>
